<svg xmlns="http://www.w3.org/2000/svg" xmlns:xlink="http://www.w3.org/1999/xlink" width="300" zoomAndPan="magnify" viewBox="0 0 224.87999 60" height="80" preserveAspectRatio="xMidYMid meet" version="1.0"><defs><g/></defs><g fill="#ffffff" fill-opacity="1"><g transform="translate(7.359299, 42.686814)"><g><path d="M 26.015625 -1.855469 C 26.492188 -1.941406 26.707031 -2.199219 26.707031 -2.675781 L 26.707031 -2.847656 C 26.621094 -3.320312 26.363281 -3.539062 25.886719 -3.539062 L 25.714844 -3.539062 C 23.945312 -3.191406 22.132812 -3.105469 20.363281 -3.105469 C 15.703125 -3.105469 11.089844 -3.882812 5.738281 -4.183594 C 10.398438 -11.605469 8.371094 -22.21875 11.777344 -29.769531 C 11.820312 -29.941406 11.863281 -30.070312 11.863281 -30.117188 C 11.863281 -30.460938 11.691406 -30.71875 11.347656 -30.933594 C 11.175781 -30.976562 11.046875 -31.019531 11.003906 -31.019531 C 10.613281 -31.019531 10.355469 -30.847656 10.226562 -30.503906 C 6.429688 -22.390625 8.886719 -11.003906 3.710938 -4.269531 C 1.8125 -4.269531 0.472656 -4.097656 -0.214844 -3.625 C -0.863281 -3.148438 -1.207031 -2.546875 -1.207031 -1.8125 C -1.207031 -0.820312 -0.5625 0 0.605469 0 C 1.597656 0 2.933594 -0.648438 4.53125 -2.503906 C 9.878906 -2.328125 15.015625 -1.378906 20.234375 -1.378906 C 22.175781 -1.378906 24.074219 -1.511719 26.015625 -1.855469 Z M 0.777344 -2.199219 C 0.90625 -2.242188 1.164062 -2.417969 2.070312 -2.460938 C 1.078125 -1.554688 0.472656 -1.554688 0.472656 -1.855469 C 0.472656 -1.984375 0.5625 -2.070312 0.777344 -2.199219 Z M 0.777344 -2.199219 "/></g></g></g><g fill="#ffffff" fill-opacity="1"><g transform="translate(30.873165, 42.686814)"><g><path d="M 1.078125 -6.039062 C 1.46875 -5.824219 1.855469 -5.695312 2.242188 -5.695312 C 4.917969 -5.695312 7.765625 -10.097656 9.148438 -12.640625 C 9.191406 -12.8125 9.234375 -12.945312 9.234375 -13.03125 C 9.234375 -13.332031 9.105469 -13.589844 8.800781 -13.804688 C 8.628906 -13.847656 8.5 -13.894531 8.414062 -13.894531 C 8.066406 -13.894531 7.808594 -13.761719 7.59375 -13.460938 C 5.824219 -10.3125 3.582031 -7.464844 2.285156 -7.464844 C 2.15625 -7.464844 2.070312 -7.507812 1.941406 -7.550781 C 1.640625 -7.722656 1.511719 -8.15625 1.511719 -8.886719 C 1.511719 -11.089844 2.847656 -15.273438 3.191406 -16.394531 C 3.320312 -16.871094 3.0625 -17.34375 2.589844 -17.472656 C 2.113281 -17.601562 1.640625 -17.300781 1.511719 -16.828125 C 0.820312 -14.28125 -0.171875 -11.261719 -0.171875 -8.972656 C -0.171875 -7.636719 0.171875 -6.601562 1.078125 -6.039062 Z M 3.496094 -19.890625 C 3.925781 -19.890625 4.183594 -20.105469 4.316406 -20.492188 L 4.703125 -21.789062 C 4.875 -22.433594 4.359375 -22.867188 3.839844 -22.867188 C 3.496094 -22.867188 3.148438 -22.695312 3.019531 -22.21875 L 2.847656 -21.617188 L 2.675781 -20.96875 C 2.546875 -20.449219 2.847656 -19.890625 3.496094 -19.890625 Z M 3.496094 -19.890625 "/></g></g></g><g fill="#ffffff" fill-opacity="1"><g transform="translate(40.494496, 42.686814)"><g><path d="M 0.949219 -2.71875 C 1.421875 -2.71875 1.769531 -3.148438 1.769531 -3.625 C 1.769531 -4.359375 1.726562 -5.132812 1.726562 -5.867188 C 1.726562 -6.945312 1.769531 -7.980469 1.8125 -9.058594 C 2.15625 -12.988281 6.472656 -15.921875 8.328125 -15.921875 C 8.628906 -15.921875 8.886719 -15.835938 9.015625 -15.660156 C 9.191406 -15.445312 9.277344 -15.144531 9.277344 -14.796875 C 9.277344 -14.066406 8.972656 -13.117188 8.800781 -12.597656 C 3.667969 -10.65625 1.898438 -8.15625 1.898438 -6.601562 C 1.898438 -5.609375 2.589844 -4.960938 3.625 -4.960938 C 5.175781 -4.960938 7.765625 -6.558594 9.277344 -9.449219 C 9.621094 -10.097656 9.835938 -10.699219 10.140625 -11.261719 C 11.996094 -11.90625 13.675781 -12.210938 15.273438 -12.210938 C 15.746094 -12.210938 16.136719 -12.597656 16.136719 -13.074219 C 16.136719 -13.546875 15.746094 -13.9375 15.273438 -13.9375 C 13.847656 -13.9375 12.339844 -13.71875 10.785156 -13.289062 C 10.914062 -13.847656 11.003906 -14.324219 11.003906 -14.796875 C 11.003906 -16.652344 9.878906 -17.601562 8.371094 -17.601562 C 7.117188 -17.601562 5.566406 -17 4.011719 -15.792969 C 5.265625 -17.820312 6.300781 -19.976562 7.117188 -22.304688 C 8.109375 -25.066406 8.457031 -26.964844 8.457031 -28.347656 C 8.457031 -30.289062 7.679688 -31.019531 6.859375 -31.019531 C 6.300781 -31.019531 5.78125 -30.804688 5.394531 -30.332031 C 4.140625 -28.992188 2.71875 -25.5 1.683594 -21.183594 C 0.605469 -16.652344 0 -11.519531 0 -6.039062 L 0 -4.789062 C 0 -4.402344 0 -3.96875 0.0429688 -3.539062 C 0.0429688 -3.0625 0.429688 -2.71875 0.90625 -2.71875 Z M 2.546875 -16.742188 C 3.453125 -22.609375 5.394531 -27.871094 6.6875 -29.167969 C 6.730469 -28.949219 6.773438 -28.691406 6.773438 -28.347656 C 6.773438 -26.058594 5.21875 -21.011719 2.546875 -16.742188 Z M 3.625 -6.644531 C 3.367188 -6.902344 4.445312 -8.542969 7.765625 -10.269531 C 6.472656 -7.808594 4.402344 -6.773438 3.625 -6.644531 Z M 3.625 -6.644531 "/></g></g></g><g fill="#ffffff" fill-opacity="1"><g transform="translate(57.277819, 42.686814)"><g><path d="M 0.863281 -6.082031 C 1.335938 -6.082031 1.726562 -6.429688 1.726562 -6.902344 C 1.941406 -11.519531 6.429688 -16.609375 8.671875 -16.179688 C 9.148438 -16.050781 9.535156 -16.351562 9.664062 -16.828125 C 9.792969 -17.300781 9.492188 -17.734375 9.015625 -17.863281 C 8.714844 -17.90625 8.5 -17.949219 8.328125 -17.949219 C 5.910156 -17.949219 3.367188 -15.144531 2.113281 -13.074219 C 2.242188 -14.324219 2.285156 -15.617188 2.285156 -16.957031 C 2.285156 -17.429688 1.898438 -17.820312 1.421875 -17.820312 C 0.949219 -17.820312 0.5625 -17.429688 0.5625 -16.957031 C 0.519531 -13.675781 0.0429688 -10.355469 0 -6.945312 C 0 -6.472656 0.386719 -6.125 0.863281 -6.082031 Z M 0.863281 -6.082031 "/></g></g></g><g fill="#ffffff" fill-opacity="1"><g transform="translate(69.703547, 42.686814)"><g><path d="M 4.53125 -5.738281 C 7.335938 -5.738281 10.785156 -7.335938 14.023438 -12.640625 C 14.109375 -12.769531 14.152344 -12.898438 14.152344 -13.074219 C 14.152344 -13.460938 14.023438 -13.675781 13.71875 -13.804688 C 13.589844 -13.894531 13.417969 -13.9375 13.289062 -13.9375 C 12.988281 -13.9375 12.726562 -13.804688 12.554688 -13.546875 C 11.046875 -11.003906 9.40625 -9.320312 7.679688 -8.328125 C 6.6875 -7.808594 5.523438 -7.464844 4.359375 -7.464844 C 2.761719 -7.464844 1.378906 -8.15625 1.378906 -10.007812 C 1.378906 -10.226562 1.421875 -10.441406 1.46875 -10.742188 C 4.359375 -10.957031 7.765625 -13.074219 7.765625 -15.359375 C 7.765625 -16.609375 6.816406 -17.601562 5.4375 -17.601562 C 4.574219 -17.601562 3.539062 -17.214844 2.460938 -16.179688 C 0.777344 -14.582031 -0.300781 -12.125 -0.300781 -10.007812 C -0.300781 -7.722656 1.035156 -5.738281 4.53125 -5.738281 Z M 2.070312 -12.597656 C 3.234375 -15.015625 4.660156 -15.878906 5.480469 -15.878906 C 5.78125 -15.878906 5.953125 -15.792969 5.996094 -15.574219 C 6.214844 -14.582031 4.183594 -12.945312 2.070312 -12.597656 Z M 2.070312 -12.597656 "/></g></g></g><g fill="#ffffff" fill-opacity="1"><g transform="translate(84.157065, 42.686814)"><g><path d="M 0.863281 -6.082031 C 1.335938 -6.082031 1.726562 -6.429688 1.726562 -6.902344 C 1.941406 -11.519531 6.429688 -16.609375 8.671875 -16.179688 C 9.148438 -16.050781 9.535156 -16.351562 9.664062 -16.828125 C 9.792969 -17.300781 9.492188 -17.734375 9.015625 -17.863281 C 8.714844 -17.90625 8.5 -17.949219 8.328125 -17.949219 C 5.910156 -17.949219 3.367188 -15.144531 2.113281 -13.074219 C 2.242188 -14.324219 2.285156 -15.617188 2.285156 -16.957031 C 2.285156 -17.429688 1.898438 -17.820312 1.421875 -17.820312 C 0.949219 -17.820312 0.5625 -17.429688 0.5625 -16.957031 C 0.519531 -13.675781 0.0429688 -10.355469 0 -6.945312 C 0 -6.472656 0.386719 -6.125 0.863281 -6.082031 Z M 0.863281 -6.082031 "/></g></g></g><g fill="#ffffff" fill-opacity="1"><g transform="translate(96.582796, 42.686814)"><g><path d="M 1.078125 -6.039062 C 1.46875 -5.824219 1.855469 -5.695312 2.242188 -5.695312 C 4.917969 -5.695312 7.765625 -10.097656 9.148438 -12.640625 C 9.191406 -12.8125 9.234375 -12.945312 9.234375 -13.03125 C 9.234375 -13.332031 9.105469 -13.589844 8.800781 -13.804688 C 8.628906 -13.847656 8.5 -13.894531 8.414062 -13.894531 C 8.066406 -13.894531 7.808594 -13.761719 7.59375 -13.460938 C 5.824219 -10.3125 3.582031 -7.464844 2.285156 -7.464844 C 2.15625 -7.464844 2.070312 -7.507812 1.941406 -7.550781 C 1.640625 -7.722656 1.511719 -8.15625 1.511719 -8.886719 C 1.511719 -11.089844 2.847656 -15.273438 3.191406 -16.394531 C 3.320312 -16.871094 3.0625 -17.34375 2.589844 -17.472656 C 2.113281 -17.601562 1.640625 -17.300781 1.511719 -16.828125 C 0.820312 -14.28125 -0.171875 -11.261719 -0.171875 -8.972656 C -0.171875 -7.636719 0.171875 -6.601562 1.078125 -6.039062 Z M 0.949219 -19.542969 C 1.078125 -19.542969 1.078125 -19.585938 1.207031 -19.585938 C 2.675781 -20.0625 4.097656 -20.625 5.480469 -21.269531 C 5.824219 -21.398438 5.996094 -21.660156 5.996094 -22.046875 C 5.996094 -22.089844 5.953125 -22.21875 5.910156 -22.390625 C 5.78125 -22.738281 5.523438 -22.910156 5.132812 -22.910156 C 5.089844 -22.910156 4.960938 -22.867188 4.789062 -22.824219 C 3.453125 -22.175781 2.070312 -21.703125 0.648438 -21.226562 C 0.300781 -21.097656 0.0859375 -20.796875 0.0859375 -20.449219 C 0.0859375 -20.320312 0.0859375 -20.191406 0.128906 -20.148438 C 0.214844 -19.761719 0.472656 -19.542969 0.949219 -19.542969 Z M 0.949219 -19.542969 "/></g></g></g><g fill="#ffffff" fill-opacity="1"><g transform="translate(106.204128, 42.686814)"><g><path d="M -0.128906 -6.125 C 0.257812 -5.867188 0.691406 -5.738281 1.164062 -5.738281 C 2.761719 -5.738281 4.617188 -7.59375 5.609375 -9.191406 C 5.480469 -7.160156 6.429688 -5.738281 7.9375 -5.738281 C 9.664062 -5.738281 12.167969 -7.59375 14.929688 -12.640625 C 14.972656 -12.8125 15.015625 -12.945312 15.015625 -13.03125 C 15.015625 -13.375 14.84375 -13.632812 14.539062 -13.804688 C 14.453125 -13.847656 14.324219 -13.894531 14.152344 -13.894531 C 13.804688 -13.894531 13.546875 -13.761719 13.375 -13.460938 C 11.996094 -10.699219 9.449219 -7.507812 8.199219 -7.507812 C 7.722656 -7.507812 7.464844 -7.894531 7.464844 -9.058594 C 7.464844 -9.621094 7.507812 -10.3125 7.679688 -11.175781 C 7.808594 -12.082031 7.980469 -12.988281 8.285156 -13.804688 C 8.5 -14.453125 8.109375 -15.015625 7.464844 -15.015625 C 7.160156 -15.015625 6.902344 -14.84375 6.6875 -14.496094 C 5.652344 -12.511719 3.96875 -9.234375 2.199219 -7.9375 C 1.8125 -7.636719 1.511719 -7.507812 1.207031 -7.507812 C 0.734375 -7.507812 0.519531 -7.851562 0.519531 -8.585938 C 0.519531 -10.828125 3.0625 -15.835938 7.679688 -15.835938 C 8.15625 -15.835938 8.542969 -16.222656 8.542969 -16.695312 C 8.542969 -17.171875 8.15625 -17.558594 7.679688 -17.558594 C 2.285156 -17.558594 -1.164062 -12.082031 -1.164062 -8.585938 C -1.164062 -7.507812 -0.820312 -6.601562 -0.128906 -6.125 Z M -0.128906 -6.125 "/></g></g></g><g fill="#ffffff" fill-opacity="1"><g transform="translate(121.563679, 42.686814)"><g/></g></g><g fill="#ffffff" fill-opacity="1"><g transform="translate(132.651925, 42.686814)"><g><path d="M 6.039062 0 C 6.515625 0 6.859375 -0.34375 6.859375 -0.820312 L 6.859375 -0.90625 C 6.644531 -4.316406 6.558594 -7.59375 6.558594 -11.003906 L 6.558594 -12.988281 C 14.796875 -17.257812 18.421875 -21.832031 18.421875 -25.328125 C 18.421875 -28.734375 15.058594 -31.019531 9.148438 -31.019531 L 8.414062 -31.019531 C 8.199219 -31.019531 7.9375 -31.019531 7.679688 -30.976562 C 7.722656 -31.195312 7.765625 -31.367188 7.765625 -31.667969 C 7.894531 -32.1875 7.464844 -32.617188 6.945312 -32.617188 C 6.472656 -32.617188 6.125 -32.316406 6.082031 -31.839844 L 5.953125 -30.804688 C 4.703125 -30.632812 3.453125 -30.332031 2.113281 -29.941406 C 1.726562 -29.8125 1.511719 -29.554688 1.511719 -29.078125 C 1.511719 -28.992188 1.511719 -28.90625 1.554688 -28.863281 C 1.683594 -28.476562 1.984375 -28.261719 2.371094 -28.261719 C 2.503906 -28.261719 2.589844 -28.261719 2.632812 -28.304688 C 3.667969 -28.605469 4.703125 -28.863281 5.738281 -29.035156 C 5.21875 -24.074219 4.917969 -19.113281 4.832031 -14.066406 C 3.367188 -13.332031 1.8125 -12.640625 0.171875 -11.996094 C -0.214844 -11.863281 -0.386719 -11.5625 -0.386719 -11.175781 C -0.386719 -11.046875 -0.386719 -10.914062 -0.34375 -10.871094 C -0.171875 -10.484375 0.0859375 -10.3125 0.472656 -10.3125 C 0.90625 -10.3125 4.316406 -11.90625 4.789062 -12.125 C 4.789062 -8.328125 4.832031 -4.574219 5.132812 -0.777344 C 5.175781 -0.300781 5.523438 0 5.996094 0 Z M 6.558594 -14.972656 C 6.6875 -19.761719 6.988281 -24.464844 7.507812 -29.253906 C 8.15625 -29.296875 8.714844 -29.339844 9.277344 -29.339844 C 14.152344 -29.339844 16.695312 -27.65625 16.695312 -25.195312 C 16.695312 -22.433594 13.460938 -18.640625 6.558594 -14.972656 Z M 6.558594 -14.972656 "/></g></g></g><g fill="#ffffff" fill-opacity="1"><g transform="translate(152.929951, 42.686814)"><g><path d="M -0.128906 -6.125 C 0.257812 -5.867188 0.691406 -5.738281 1.164062 -5.738281 C 2.761719 -5.738281 4.617188 -7.59375 5.609375 -9.191406 C 5.480469 -7.160156 6.429688 -5.738281 7.9375 -5.738281 C 9.664062 -5.738281 12.167969 -7.59375 14.929688 -12.640625 C 14.972656 -12.8125 15.015625 -12.945312 15.015625 -13.03125 C 15.015625 -13.375 14.84375 -13.632812 14.539062 -13.804688 C 14.453125 -13.847656 14.324219 -13.894531 14.152344 -13.894531 C 13.804688 -13.894531 13.546875 -13.761719 13.375 -13.460938 C 11.996094 -10.699219 9.449219 -7.507812 8.199219 -7.507812 C 7.722656 -7.507812 7.464844 -7.894531 7.464844 -9.058594 C 7.464844 -9.621094 7.507812 -10.3125 7.679688 -11.175781 C 7.808594 -12.082031 7.980469 -12.988281 8.285156 -13.804688 C 8.5 -14.453125 8.109375 -15.015625 7.464844 -15.015625 C 7.160156 -15.015625 6.902344 -14.84375 6.6875 -14.496094 C 5.652344 -12.511719 3.96875 -9.234375 2.199219 -7.9375 C 1.8125 -7.636719 1.511719 -7.507812 1.207031 -7.507812 C 0.734375 -7.507812 0.519531 -7.851562 0.519531 -8.585938 C 0.519531 -10.828125 3.0625 -15.835938 7.679688 -15.835938 C 8.15625 -15.835938 8.542969 -16.222656 8.542969 -16.695312 C 8.542969 -17.171875 8.15625 -17.558594 7.679688 -17.558594 C 2.285156 -17.558594 -1.164062 -12.082031 -1.164062 -8.585938 C -1.164062 -7.507812 -0.820312 -6.601562 -0.128906 -6.125 Z M -0.128906 -6.125 "/></g></g></g><g fill="#ffffff" fill-opacity="1"><g transform="translate(168.289502, 42.686814)"><g><path d="M 1.8125 12.425781 C 2.285156 12.425781 2.675781 12.039062 2.675781 11.5625 C 2.632812 10.742188 2.632812 9.964844 2.632812 9.148438 L 2.632812 6.730469 C 2.632812 2.546875 2.675781 -1.554688 2.804688 -5.824219 C 2.933594 -5.78125 3.148438 -5.78125 3.410156 -5.78125 C 4.574219 -5.78125 5.695312 -6.300781 6.6875 -6.945312 C 9.535156 -8.886719 11.261719 -12.167969 11.261719 -14.539062 C 11.261719 -16.308594 10.355469 -17.644531 8.15625 -17.644531 C 6.472656 -17.644531 4.703125 -16.871094 3.191406 -15.878906 L 3.320312 -18.59375 C 3.320312 -19.070312 2.976562 -19.5 2.503906 -19.5 C 2.027344 -19.542969 1.640625 -19.15625 1.597656 -18.683594 C 1.46875 -17.257812 1.511719 -15.835938 1.378906 -14.410156 C 0.734375 -13.761719 0.171875 -13.117188 -0.300781 -12.46875 C -0.386719 -12.296875 -0.429688 -12.125 -0.429688 -11.996094 C -0.429688 -11.691406 -0.300781 -11.433594 -0.0429688 -11.261719 C 0.0859375 -11.175781 0.257812 -11.132812 0.472656 -11.132812 C 0.777344 -11.132812 1.035156 -11.261719 1.164062 -11.476562 L 1.292969 -11.691406 C 1.035156 -5.394531 0.90625 0.820312 0.90625 6.902344 C 0.90625 8.457031 0.949219 10.054688 0.949219 11.605469 C 0.949219 12.082031 1.335938 12.425781 1.8125 12.425781 Z M 2.847656 -7.59375 C 2.976562 -9.621094 2.933594 -11.605469 3.0625 -13.632812 C 4.832031 -15.144531 6.816406 -15.921875 8.15625 -15.921875 C 8.628906 -15.921875 8.972656 -15.835938 9.191406 -15.617188 C 9.492188 -15.359375 9.621094 -14.972656 9.621094 -14.453125 C 9.621094 -11.996094 6.167969 -7.507812 3.410156 -7.507812 C 3.277344 -7.507812 3.0625 -7.550781 2.847656 -7.59375 Z M 2.847656 -7.59375 "/></g></g></g><g fill="#ffffff" fill-opacity="1"><g transform="translate(184.12365, 42.686814)"><g><path d="M 1.078125 -6.039062 C 1.46875 -5.824219 1.855469 -5.695312 2.242188 -5.695312 C 4.917969 -5.695312 7.765625 -10.097656 9.148438 -12.640625 C 9.191406 -12.8125 9.234375 -12.945312 9.234375 -13.03125 C 9.234375 -13.332031 9.105469 -13.589844 8.800781 -13.804688 C 8.628906 -13.847656 8.5 -13.894531 8.414062 -13.894531 C 8.066406 -13.894531 7.808594 -13.761719 7.59375 -13.460938 C 5.824219 -10.3125 3.582031 -7.464844 2.285156 -7.464844 C 2.15625 -7.464844 2.070312 -7.507812 1.941406 -7.550781 C 1.640625 -7.722656 1.511719 -8.15625 1.511719 -8.886719 C 1.511719 -11.089844 2.847656 -15.273438 3.191406 -16.394531 C 3.320312 -16.871094 3.0625 -17.34375 2.589844 -17.472656 C 2.113281 -17.601562 1.640625 -17.300781 1.511719 -16.828125 C 0.820312 -14.28125 -0.171875 -11.261719 -0.171875 -8.972656 C -0.171875 -7.636719 0.171875 -6.601562 1.078125 -6.039062 Z M 3.496094 -19.890625 C 3.925781 -19.890625 4.183594 -20.105469 4.316406 -20.492188 L 4.703125 -21.789062 C 4.875 -22.433594 4.359375 -22.867188 3.839844 -22.867188 C 3.496094 -22.867188 3.148438 -22.695312 3.019531 -22.21875 L 2.847656 -21.617188 L 2.675781 -20.96875 C 2.546875 -20.449219 2.847656 -19.890625 3.496094 -19.890625 Z M 3.496094 -19.890625 "/></g></g></g><g fill="#ffffff" fill-opacity="1"><g transform="translate(193.744981, 42.686814)"><g><path d="M 0.863281 -6.082031 C 1.335938 -6.082031 1.726562 -6.429688 1.726562 -6.902344 C 1.941406 -11.519531 6.429688 -16.609375 8.671875 -16.179688 C 9.148438 -16.050781 9.535156 -16.351562 9.664062 -16.828125 C 9.792969 -17.300781 9.492188 -17.734375 9.015625 -17.863281 C 8.714844 -17.90625 8.5 -17.949219 8.328125 -17.949219 C 5.910156 -17.949219 3.367188 -15.144531 2.113281 -13.074219 C 2.242188 -14.324219 2.285156 -15.617188 2.285156 -16.957031 C 2.285156 -17.429688 1.898438 -17.820312 1.421875 -17.820312 C 0.949219 -17.820312 0.5625 -17.429688 0.5625 -16.957031 C 0.519531 -13.675781 0.0429688 -10.355469 0 -6.945312 C 0 -6.472656 0.386719 -6.125 0.863281 -6.082031 Z M 0.863281 -6.082031 "/></g></g></g><g fill="#ffffff" fill-opacity="1"><g transform="translate(206.170704, 42.686814)"><g><path d="M 6.859375 -8.066406 C 7.507812 -9.234375 7.894531 -10.570312 7.894531 -11.90625 C 8.371094 -11.820312 8.84375 -11.777344 9.40625 -11.777344 C 10.398438 -11.777344 11.476562 -11.953125 12.640625 -12.253906 C 13.074219 -12.382812 13.289062 -12.683594 13.289062 -13.160156 L 13.289062 -13.332031 C 13.160156 -13.675781 12.8125 -13.980469 12.425781 -13.980469 C 12.296875 -13.980469 12.339844 -13.9375 12.210938 -13.9375 C 11.21875 -13.632812 10.3125 -13.503906 9.449219 -13.503906 C 8.757812 -13.503906 8.15625 -13.632812 7.636719 -13.761719 C 7.292969 -15.316406 5.867188 -17.644531 4.226562 -17.429688 C 4.097656 -17.515625 3.925781 -17.558594 3.753906 -17.558594 C 3.539062 -17.558594 3.320312 -17.515625 3.191406 -17.386719 C 1.941406 -16.308594 0.992188 -14.929688 0.519531 -13.246094 C 0.214844 -12.296875 0.0859375 -11.390625 0.0859375 -10.527344 C 0.0859375 -7.59375 1.726562 -5.738281 3.582031 -5.738281 C 4.746094 -5.738281 5.867188 -6.472656 6.859375 -8.066406 Z M 5.351562 -8.972656 C 4.703125 -7.9375 4.097656 -7.421875 3.539062 -7.421875 C 2.546875 -7.421875 1.855469 -8.84375 1.855469 -10.699219 C 1.855469 -12.082031 2.285156 -13.71875 3.367188 -15.101562 C 3.753906 -14.109375 4.703125 -13.117188 6.125 -12.46875 C 6.125 -12.296875 6.167969 -12.125 6.167969 -11.90625 C 6.167969 -10.828125 5.824219 -9.792969 5.351562 -8.972656 Z M 5.351562 -8.972656 "/></g></g></g></svg>